<svg xmlns="http://www.w3.org/2000/svg" width="920" height="520" viewBox="0 0 920 520" role="img" aria-labelledby="title desc">
  <title id="title">Critical line and quaternionic critical slice</title>
  <desc id="desc">A schematic showing Re(s)=1/2 as the complex projection of Re(q)=1/2.</desc>
  <rect width="100%" height="100%" fill="#f8fafc"/>
  <text x="460" y="42" text-anchor="middle" font-family="Arial, sans-serif" font-size="24" font-weight="700" fill="#0f172a">Quaternionic Critical Slice Projection</text>

  <g aria-label="complex plane panel">
    <rect x="110" y="92" width="300" height="320" rx="8" fill="#ffffff" stroke="#cbd5e1" stroke-width="2"/>
    <line x1="148" y1="368" x2="376" y2="368" stroke="#475569" stroke-width="2"/>
    <line x1="168" y1="388" x2="168" y2="126" stroke="#475569" stroke-width="2"/>
    <line x1="260" y1="368" x2="260" y2="137" stroke="#2563eb" stroke-width="5"/>
    <text x="260" y="166" text-anchor="middle" font-family="Arial, sans-serif" font-size="16" font-weight="700" fill="#1d4ed8">Re(s)=1/2</text>
    <text x="372" y="394" font-family="Arial, sans-serif" font-size="14" fill="#334155">Re(s)</text>
    <text x="128" y="136" font-family="Arial, sans-serif" font-size="14" fill="#334155">Im(s)</text>
    <circle cx="260" cy="215" r="5" fill="#0f766e"/>
    <circle cx="260" cy="277" r="5" fill="#0f766e"/>
    <circle cx="260" cy="342" r="5" fill="#0f766e"/>
    <text x="260" y="450" text-anchor="middle" font-family="Arial, sans-serif" font-size="15" fill="#0f172a">complex critical line</text>
  </g>

  <g aria-label="quaternionic slice panel">
    <rect x="535" y="92" width="275" height="320" rx="8" fill="#ffffff" stroke="#cbd5e1" stroke-width="2"/>
    <ellipse cx="672" cy="287" rx="112" ry="54" fill="#dbeafe" stroke="#2563eb" stroke-width="3"/>
    <ellipse cx="672" cy="287" rx="62" ry="30" fill="none" stroke="#60a5fa" stroke-width="2"/>
    <line x1="672" y1="157" x2="672" y2="397" stroke="#1d4ed8" stroke-width="5"/>
    <line x1="587" y1="357" x2="776" y2="211" stroke="#64748b" stroke-width="2"/>
    <line x1="591" y1="210" x2="768" y2="364" stroke="#64748b" stroke-width="2"/>
    <text x="672" y="146" text-anchor="middle" font-family="Arial, sans-serif" font-size="16" font-weight="700" fill="#1d4ed8">Re(q)=1/2</text>
    <text x="748" y="200" font-family="Arial, sans-serif" font-size="14" fill="#334155">Im(q)</text>
    <text x="561" y="370" font-family="Arial, sans-serif" font-size="14" fill="#334155">slice directions</text>
    <circle cx="672" cy="237" r="5" fill="#0f766e"/>
    <circle cx="672" cy="287" r="5" fill="#0f766e"/>
    <circle cx="672" cy="337" r="5" fill="#0f766e"/>
    <text x="672" y="450" text-anchor="middle" font-family="Arial, sans-serif" font-size="15" fill="#0f172a">quaternionic equilibrium slice</text>
  </g>

  <path d="M 430 248 C 462 218, 494 218, 525 248" fill="none" stroke="#0f172a" stroke-width="2.5" marker-end="url(#arrow)"/>
  <text x="477" y="205" text-anchor="middle" font-family="Arial, sans-serif" font-size="14" fill="#0f172a">projection</text>

  <defs>
    <marker id="arrow" markerWidth="10" markerHeight="10" refX="6" refY="3" orient="auto" markerUnits="strokeWidth">
      <path d="M0,0 L0,6 L7,3 z" fill="#0f172a"/>
    </marker>
  </defs>

  <text x="460" y="478" text-anchor="middle" font-family="Arial, sans-serif" font-size="15" fill="#334155">Conjectural direction: zeta symmetry -> classical scale-stability defect -> optional quaternionic lift</text>
</svg>
